{
  "accessors": [
    {
      "name": "Sphere_Sphere_RedTip_0_positions",
      "componentType": 5126,
      "count": 636,
      "min": [
        -0.40040498971939087,
        1.9177969694137573,
        -0.40040498971939087
      ],
      "max": [
        0.40040498971939087,
        2.545973062515259,
        0.40040498971939087
      ],
      "type": "VEC3",
      "bufferView": 0,
      "byteOffset": 0
    },
    {
      "name": "Sphere_Sphere_RedTip_0_normals",
      "componentType": 5126,
      "count": 636,
      "min": [
        -0.8495751619338989,
        -0.5263769626617432,
        -0.848783552646637
      ],
      "max": [
        0.846389651298523,
        0.9951419830322266,
        0.8473487496376038
      ],
      "type": "VEC3",
      "bufferView": 1,
      "byteOffset": 0
    },
    {
      "name": "Sphere_Sphere_RedTip_0_indices",
      "componentType": 5123,
      "count": 864,
      "min": [
        0
      ],
      "max": [
        635
      ],
      "type": "SCALAR",
      "bufferView": 2,
      "byteOffset": 0
    },
    {
      "name": "Sphere_Sphere_Main_0_positions",
      "componentType": 5126,
      "count": 1966,
      "min": [
        -0.7207099795341492,
        0.5978389978408813,
        -0.7207099795341492
      ],
      "max": [
        0.7207099795341492,
        2.5289220809936523,
        0.7207099795341492
      ],
      "type": "VEC3",
      "bufferView": 0,
      "byteOffset": 7632
    },
    {
      "name": "Sphere_Sphere_Main_0_normals",
      "componentType": 5126,
      "count": 1966,
      "min": [
        -0.9951865673065186,
        -1,
        -0.9951865673065186
      ],
      "max": [
        0.9951865673065186,
        0.7715139985084534,
        0.9951865673065186
      ],
      "type": "VEC3",
      "bufferView": 1,
      "byteOffset": 7632
    },
    {
      "name": "Sphere_Sphere_Main_0_indices",
      "componentType": 5123,
      "count": 2874,
      "min": [
        0
      ],
      "max": [
        1965
      ],
      "type": "SCALAR",
      "bufferView": 2,
      "byteOffset": 1728
    },
    {
      "name": "Cylinder_Cylinder_AirLock_0_positions",
      "componentType": 5126,
      "count": 186,
      "min": [
        -1.458238959312439,
        0.0012009999481961131,
        -0.1810009926557541
      ],
      "max": [
        1.456212043762207,
        0.393202006816864,
        1.455875039100647
      ],
      "type": "VEC3",
      "bufferView": 0,
      "byteOffset": 31224
    },
    {
      "name": "Cylinder_Cylinder_AirLock_0_normals",
      "componentType": 5126,
      "count": 186,
      "min": [
        -0.9989689588546753,
        -1,
        -0.5913092494010925
      ],
      "max": [
        0.9989689588546753,
        0.879436194896698,
        0.9989689588546753
      ],
      "type": "VEC3",
      "bufferView": 1,
      "byteOffset": 31224
    },
    {
      "name": "Cylinder_Cylinder_AirLock_0_indices",
      "componentType": 5123,
      "count": 270,
      "min": [
        0
      ],
      "max": [
        185
      ],
      "type": "SCALAR",
      "bufferView": 2,
      "byteOffset": 7476
    },
    {
      "name": "Cylinder_Cylinder_Main.001_0_positions",
      "componentType": 5126,
      "count": 410,
      "min": [
        -1.3670109510421753,
        0.00019299999985378236,
        -1
      ],
      "max": [
        1.3649829626083374,
        1.0376789569854736,
        1.3646459579467773
      ],
      "type": "VEC3",
      "bufferView": 0,
      "byteOffset": 33456
    },
    {
      "name": "Cylinder_Cylinder_Main.001_0_normals",
      "componentType": 5126,
      "count": 410,
      "min": [
        -1,
        -0.009700377471745014,
        -1
      ],
      "max": [
        1,
        1,
        1
      ],
      "type": "VEC3",
      "bufferView": 1,
      "byteOffset": 33456
    },
    {
      "name": "Cylinder_Cylinder_Main.001_0_indices",
      "componentType": 5123,
      "count": 684,
      "min": [
        0
      ],
      "max": [
        409
      ],
      "type": "SCALAR",
      "bufferView": 2,
      "byteOffset": 8016
    },
    {
      "name": "Cylinder_Cylinder_Lining_0_positions",
      "componentType": 5126,
      "count": 132,
      "min": [
        -1.3967009782791138,
        0.0012009999481961131,
        -0.18472999334335327
      ],
      "max": [
        1.3946729898452759,
        0.40804100036621094,
        1.3943370580673218
      ],
      "type": "VEC3",
      "bufferView": 0,
      "byteOffset": 38376
    },
    {
      "name": "Cylinder_Cylinder_Lining_0_normals",
      "componentType": 5126,
      "count": 132,
      "min": [
        -1,
        0,
        -1
      ],
      "max": [
        1,
        0.8968299627304077,
        1
      ],
      "type": "VEC3",
      "bufferView": 1,
      "byteOffset": 38376
    },
    {
      "name": "Cylinder_Cylinder_Lining_0_indices",
      "componentType": 5123,
      "count": 180,
      "min": [
        0
      ],
      "max": [
        131
      ],
      "type": "SCALAR",
      "bufferView": 2,
      "byteOffset": 9384
    }
  ],
  "asset": {
    "generator": "obj2gltf",
    "version": "2.0"
  },
  "buffers": [
    {
      "name": "moon_base",
      "byteLength": 89664,
      "uri": "data:application/octet-stream;base64,"
    }
  ],
  "bufferViews": [
    {
      "name": "bufferView_0",
      "buffer": 0,
      "byteLength": 39960,
      "byteOffset": 0,
      "byteStride": 12,
      "target": 34962
    },
    {
      "name": "bufferView_1",
      "buffer": 0,
      "byteLength": 39960,
      "byteOffset": 39960,
      "byteStride": 12,
      "target": 34962
    },
    {
      "name": "bufferView_2",
      "buffer": 0,
      "byteLength": 9744,
      "byteOffset": 79920,
      "target": 34963
    }
  ],
  "materials": [
    {
      "name": "RedTip",
      "pbrMetallicRoughness": {
        "baseColorFactor": [
          0.64,
          0,
          0.001494,
          1
        ],
        "metallicFactor": 0,
        "roughnessFactor": 0.903921569
      },
      "emissiveFactor": [
        0,
        0,
        0
      ],
      "alphaMode": "OPAQUE",
      "doubleSided": false
    },
    {
      "name": "Main",
      "pbrMetallicRoughness": {
        "baseColorFactor": [
          0.64,
          0.64,
          0.64,
          1
        ],
        "metallicFactor": 0,
        "roughnessFactor": 0.903921569
      },
      "emissiveFactor": [
        0,
        0,
        0
      ],
      "alphaMode": "OPAQUE",
      "doubleSided": false
    },
    {
      "name": "AirLock",
      "pbrMetallicRoughness": {
        "baseColorFactor": [
          0.64,
          0.137856,
          0.017928,
          1
        ],
        "metallicFactor": 0,
        "roughnessFactor": 0.903921569
      },
      "emissiveFactor": [
        0,
        0,
        0
      ],
      "alphaMode": "OPAQUE",
      "doubleSided": false
    },
    {
      "name": "Main.001",
      "pbrMetallicRoughness": {
        "baseColorFactor": [
          0.64,
          0.64,
          0.64,
          1
        ],
        "metallicFactor": 0,
        "roughnessFactor": 0.903921569
      },
      "emissiveFactor": [
        0,
        0,
        0
      ],
      "alphaMode": "OPAQUE",
      "doubleSided": false
    },
    {
      "name": "Lining",
      "pbrMetallicRoughness": {
        "baseColorFactor": [
          0.030086,
          0.420774,
          0.64,
          1
        ],
        "metallicFactor": 0,
        "roughnessFactor": 0.903921569
      },
      "emissiveFactor": [
        0,
        0,
        0
      ],
      "alphaMode": "OPAQUE",
      "doubleSided": false
    }
  ],
  "meshes": [
    {
      "name": "Sphere_Sphere_RedTip",
      "primitives": [
        {
          "attributes": {
            "POSITION": 0,
            "NORMAL": 1
          },
          "indices": 2,
          "material": 0,
          "mode": 4
        }
      ]
    },
    {
      "name": "Sphere_Sphere_Main",
      "primitives": [
        {
          "attributes": {
            "POSITION": 3,
            "NORMAL": 4
          },
          "indices": 5,
          "material": 1,
          "mode": 4
        }
      ]
    },
    {
      "name": "Cylinder_Cylinder_AirLock",
      "primitives": [
        {
          "attributes": {
            "POSITION": 6,
            "NORMAL": 7
          },
          "indices": 8,
          "material": 2,
          "mode": 4
        }
      ]
    },
    {
      "name": "Cylinder_Cylinder_Main.001",
      "primitives": [
        {
          "attributes": {
            "POSITION": 9,
            "NORMAL": 10
          },
          "indices": 11,
          "material": 3,
          "mode": 4
        }
      ]
    },
    {
      "name": "Cylinder_Cylinder_Lining",
      "primitives": [
        {
          "attributes": {
            "POSITION": 12,
            "NORMAL": 13
          },
          "indices": 14,
          "material": 4,
          "mode": 4
        }
      ]
    }
  ],
  "nodes": [
    {
      "name": "Sphere",
      "children": [
        1,
        2
      ]
    },
    {
      "name": "Sphere_Sphere_RedTip",
      "mesh": 0
    },
    {
      "name": "Sphere_Sphere_Main",
      "mesh": 1
    },
    {
      "name": "Cylinder",
      "children": [
        4,
        5,
        6
      ]
    },
    {
      "name": "Cylinder_Cylinder_AirLock",
      "mesh": 2
    },
    {
      "name": "Cylinder_Cylinder_Main.001",
      "mesh": 3
    },
    {
      "name": "Cylinder_Cylinder_Lining",
      "mesh": 4
    }
  ],
  "scene": 0,
  "scenes": [
    {
      "nodes": [
        0,
        3
      ]
    }
  ]
}
